<svg xmlns="http://www.w3.org/2000/svg" xmlns:xlink="http://www.w3.org/1999/xlink" width="500" zoomAndPan="magnify" viewBox="0 0 375 127.500001" height="170" preserveAspectRatio="xMidYMid meet" version="1.0"><defs><g/></defs><g fill="#000000" fill-opacity="1"><g transform="translate(2.470954, 84.585015)"><g><path d="M 52.796875 0 L 41.359375 0 L 37.21875 -12.6875 L 16.140625 -12.6875 L 12 0 L 0.828125 0 L 19.828125 -55.03125 L 33.796875 -55.03125 Z M 26.15625 -43.546875 L 19.078125 -21.828125 L 34.21875 -21.828125 L 27.09375 -43.546875 Z M 26.15625 -43.546875 "/></g></g></g><g fill="#000000" fill-opacity="1"><g transform="translate(56.091726, 84.585015)"><g><path d="M 24.203125 0.796875 C 20.179688 0.796875 16.628906 -0.0351562 13.546875 -1.703125 C 10.460938 -3.378906 8.050781 -5.832031 6.3125 -9.0625 C 4.582031 -12.300781 3.71875 -16.191406 3.71875 -20.734375 C 3.71875 -25.304688 4.582031 -29.207031 6.3125 -32.4375 C 8.050781 -35.675781 10.453125 -38.128906 13.515625 -39.796875 C 16.578125 -41.460938 20.078125 -42.296875 24.015625 -42.296875 C 32.765625 -42.296875 38.367188 -39.125 40.828125 -32.78125 L 33.6875 -27.65625 L 32.890625 -27.65625 C 32.035156 -29.613281 30.925781 -31.066406 29.5625 -32.015625 C 28.195312 -32.972656 26.347656 -33.453125 24.015625 -33.453125 C 21.003906 -33.453125 18.65625 -32.410156 16.96875 -30.328125 C 15.289062 -28.242188 14.453125 -25.046875 14.453125 -20.734375 C 14.453125 -16.472656 15.304688 -13.289062 17.015625 -11.1875 C 18.722656 -9.09375 21.117188 -8.046875 24.203125 -8.046875 C 26.460938 -8.046875 28.375 -8.65625 29.9375 -9.875 C 31.507812 -11.09375 32.632812 -12.84375 33.3125 -15.125 L 34.09375 -15.203125 L 41.515625 -11.140625 C 40.460938 -7.628906 38.507812 -4.757812 35.65625 -2.53125 C 32.8125 -0.3125 28.992188 0.796875 24.203125 0.796875 Z M 24.203125 0.796875 "/></g></g></g><g fill="#000000" fill-opacity="1"><g transform="translate(98.87546, 84.585015)"><g><path d="M 28.640625 -9.890625 L 31.34375 -2.1875 C 30.21875 -1.257812 28.800781 -0.53125 27.09375 0 C 25.382812 0.53125 23.453125 0.796875 21.296875 0.796875 C 16.804688 0.796875 13.394531 -0.425781 11.0625 -2.875 C 8.726562 -5.320312 7.5625 -8.878906 7.5625 -13.546875 L 7.5625 -33.265625 L 1.234375 -33.265625 L 1.234375 -41.546875 L 7.5625 -41.546875 L 7.5625 -49.640625 L 17.984375 -51.328125 L 17.984375 -41.546875 L 29.765625 -41.546875 L 29.765625 -33.265625 L 17.984375 -33.265625 L 17.984375 -14.296875 C 17.984375 -12.242188 18.410156 -10.742188 19.265625 -9.796875 C 20.117188 -8.859375 21.363281 -8.390625 23 -8.390625 C 24.851562 -8.390625 26.46875 -8.890625 27.84375 -9.890625 Z M 28.640625 -9.890625 "/></g></g></g><g fill="#000000" fill-opacity="1"><g transform="translate(131.123182, 84.585015)"><g><path d="M 11.171875 -46.484375 C 9.296875 -46.484375 7.765625 -47.050781 6.578125 -48.1875 C 5.398438 -49.332031 4.8125 -50.804688 4.8125 -52.609375 C 4.8125 -54.390625 5.398438 -55.851562 6.578125 -57 C 7.765625 -58.144531 9.296875 -58.71875 11.171875 -58.71875 C 12.429688 -58.71875 13.550781 -58.453125 14.53125 -57.921875 C 15.507812 -57.390625 16.265625 -56.664062 16.796875 -55.75 C 17.335938 -54.84375 17.609375 -53.796875 17.609375 -52.609375 C 17.609375 -51.429688 17.335938 -50.378906 16.796875 -49.453125 C 16.265625 -48.523438 15.507812 -47.796875 14.53125 -47.265625 C 13.550781 -46.742188 12.429688 -46.484375 11.171875 -46.484375 Z M 5.984375 0 L 5.984375 -41.515625 L 16.40625 -41.515625 L 16.40625 0 Z M 5.984375 0 "/></g></g></g><g fill="#000000" fill-opacity="1"><g transform="translate(153.474575, 84.585015)"><g><path d="M 28.5625 0 L 16.140625 0 L 0.796875 -41.515625 L 11.703125 -41.515625 L 22.015625 -11.9375 L 22.875 -11.9375 L 33.234375 -41.515625 L 43.890625 -41.515625 Z M 28.5625 0 "/></g></g></g><g fill="#000000" fill-opacity="1"><g transform="translate(198.102093, 84.585015)"><g><path d="M 41.015625 -18.40625 L 14.34375 -18.40625 C 14.644531 -14.789062 15.671875 -12.160156 17.421875 -10.515625 C 19.179688 -8.867188 21.578125 -8.046875 24.609375 -8.046875 C 26.992188 -8.046875 28.925781 -8.488281 30.40625 -9.375 C 31.882812 -10.269531 33.078125 -11.625 33.984375 -13.4375 L 34.78125 -13.4375 L 41.703125 -9 C 40.347656 -6.082031 38.300781 -3.71875 35.5625 -1.90625 C 32.832031 -0.101562 29.179688 0.796875 24.609375 0.796875 C 20.316406 0.796875 16.609375 -0.0195312 13.484375 -1.65625 C 10.367188 -3.289062 7.960938 -5.71875 6.265625 -8.9375 C 4.566406 -12.164062 3.71875 -16.097656 3.71875 -20.734375 C 3.71875 -25.453125 4.609375 -29.425781 6.390625 -32.65625 C 8.171875 -35.894531 10.578125 -38.3125 13.609375 -39.90625 C 16.648438 -41.5 20.066406 -42.296875 23.859375 -42.296875 C 29.734375 -42.296875 34.234375 -40.738281 37.359375 -37.625 C 40.484375 -34.519531 42.046875 -29.957031 42.046875 -23.9375 C 42.046875 -21.75 41.96875 -20.054688 41.8125 -18.859375 Z M 32.0625 -25.140625 C 31.96875 -28.304688 31.234375 -30.609375 29.859375 -32.046875 C 28.492188 -33.492188 26.492188 -34.21875 23.859375 -34.21875 C 18.585938 -34.21875 15.488281 -31.191406 14.5625 -25.140625 Z M 32.0625 -25.140625 "/></g></g></g><g fill="#000000" fill-opacity="1"><g transform="translate(243.2188, 84.585015)"><g><path d="M 29.171875 0.796875 C 21.585938 0.796875 15.960938 -1.003906 12.296875 -4.609375 C 8.640625 -8.210938 6.8125 -13.550781 6.8125 -20.625 L 6.8125 -55.03125 L 17.46875 -55.03125 L 17.46875 -20.703125 C 17.46875 -16.679688 18.429688 -13.664062 20.359375 -11.65625 C 22.296875 -9.65625 25.234375 -8.65625 29.171875 -8.65625 C 36.972656 -8.65625 40.875 -12.671875 40.875 -20.703125 L 40.875 -55.03125 L 51.515625 -55.03125 L 51.515625 -20.625 C 51.515625 -13.550781 49.679688 -8.210938 46.015625 -4.609375 C 42.359375 -1.003906 36.742188 0.796875 29.171875 0.796875 Z M 29.171875 0.796875 "/></g></g></g><g fill="#000000" fill-opacity="1"><g transform="translate(301.543154, 84.585015)"><g><path d="M 5.984375 16.828125 L 5.984375 -41.515625 L 16.40625 -41.515625 L 16.40625 -36.09375 L 17.203125 -35.9375 C 18.429688 -38.050781 20.070312 -39.640625 22.125 -40.703125 C 24.1875 -41.765625 26.597656 -42.296875 29.359375 -42.296875 C 32.691406 -42.296875 35.601562 -41.503906 38.09375 -39.921875 C 40.59375 -38.347656 42.539062 -35.945312 43.9375 -32.71875 C 45.332031 -29.5 46.03125 -25.503906 46.03125 -20.734375 C 46.03125 -15.992188 45.296875 -12.015625 43.828125 -8.796875 C 42.359375 -5.585938 40.316406 -3.1875 37.703125 -1.59375 C 35.097656 0 32.085938 0.796875 28.671875 0.796875 C 26.085938 0.796875 23.851562 0.363281 21.96875 -0.5 C 20.09375 -1.375 18.503906 -2.722656 17.203125 -4.546875 L 16.40625 -4.40625 L 16.40625 16.828125 Z M 25.78125 -8.046875 C 28.894531 -8.046875 31.253906 -9.0625 32.859375 -11.09375 C 34.460938 -13.132812 35.265625 -16.347656 35.265625 -20.734375 C 35.265625 -25.128906 34.460938 -28.347656 32.859375 -30.390625 C 31.253906 -32.429688 28.894531 -33.453125 25.78125 -33.453125 C 22.875 -33.453125 20.566406 -32.398438 18.859375 -30.296875 C 17.148438 -28.191406 16.296875 -25.003906 16.296875 -20.734375 C 16.296875 -16.492188 17.148438 -13.316406 18.859375 -11.203125 C 20.566406 -9.097656 22.875 -8.046875 25.78125 -8.046875 Z M 25.78125 -8.046875 "/></g></g></g><g fill="#000000" fill-opacity="1"><g transform="translate(351.25054, 84.585015)"><g><path d="M 10.609375 0.34375 C 9.285156 0.34375 8.113281 0.0703125 7.09375 -0.46875 C 6.070312 -1.007812 5.289062 -1.753906 4.75 -2.703125 C 4.21875 -3.660156 3.953125 -4.742188 3.953125 -5.953125 C 3.953125 -7.148438 4.21875 -8.222656 4.75 -9.171875 C 5.289062 -10.128906 6.070312 -10.882812 7.09375 -11.4375 C 8.113281 -11.988281 9.285156 -12.265625 10.609375 -12.265625 C 11.960938 -12.265625 13.144531 -11.992188 14.15625 -11.453125 C 15.175781 -10.921875 15.957031 -10.175781 16.5 -9.21875 C 17.039062 -8.269531 17.3125 -7.191406 17.3125 -5.984375 C 17.3125 -4.148438 16.703125 -2.632812 15.484375 -1.4375 C 14.265625 -0.25 12.640625 0.34375 10.609375 0.34375 Z M 10.609375 0.34375 "/></g></g></g><g fill="#000000" fill-opacity="1"><g transform="translate(198.933916, 110.415978)"><g><path d="M 1.066406 0 L 2.671875 0 L 2.671875 -11.625 L 2.710938 -11.625 L 8.445312 0 L 10.285156 0 L 16.003906 -11.644531 L 16.039062 -11.644531 L 16.039062 0 L 17.648438 0 L 17.648438 -13.65625 L 15.246094 -13.65625 L 9.375 -1.628906 L 9.355469 -1.628906 L 3.46875 -13.65625 L 1.066406 -13.65625 Z M 1.066406 0 "/></g></g></g><g fill="#000000" fill-opacity="1"><g transform="translate(223.907176, 110.415978)"><g><path d="M 1.066406 0 L 12.535156 0 L 12.535156 -1.433594 L 2.632812 -1.433594 L 2.632812 -6.355469 L 11.566406 -6.355469 L 11.566406 -7.75 L 2.632812 -7.75 L 2.632812 -12.222656 L 12.339844 -12.222656 L 12.339844 -13.65625 L 1.066406 -13.65625 Z M 1.066406 0 "/></g></g></g><g fill="#000000" fill-opacity="1"><g transform="translate(243.146291, 110.415978)"><g><path d="M 1.066406 0 L 7.574219 0 C 12.4375 0 15.128906 -2.441406 15.128906 -6.820312 C 15.128906 -11.21875 12.4375 -13.65625 7.574219 -13.65625 L 1.066406 -13.65625 Z M 2.671875 -1.433594 L 2.671875 -12.222656 L 7.574219 -12.222656 C 11.390625 -12.222656 13.523438 -10.304688 13.523438 -6.820312 C 13.523438 -3.351562 11.390625 -1.433594 7.574219 -1.433594 Z M 2.671875 -1.433594 "/></g></g></g><g fill="#000000" fill-opacity="1"><g transform="translate(265.271846, 110.415978)"><g><path d="M 1.066406 0 L 2.671875 0 L 2.671875 -13.65625 L 1.066406 -13.65625 Z M 1.066406 0 "/></g></g></g><g fill="#000000" fill-opacity="1"><g transform="translate(275.270451, 110.415978)"><g><path d="M 0.15625 0 L 1.878906 0 L 3.390625 -3.273438 L 11.371094 -3.273438 L 12.902344 0 L 14.605469 0 L 8.351562 -13.65625 L 6.433594 -13.65625 Z M 3.992188 -4.707031 L 7.382812 -12.167969 L 7.417969 -12.167969 L 10.789062 -4.707031 Z M 3.992188 -4.707031 "/></g></g></g></svg>