<svg id="visual" viewBox="0 0 900 600" width="900" height="600" xmlns="http://www.w3.org/2000/svg" xmlns:xlink="http://www.w3.org/1999/xlink" version="1.1"><path d="M0 575L21.5 574.5C43 574 86 573 128.8 572.5C171.7 572 214.3 572 257.2 572.7C300 573.3 343 574.7 385.8 574.2C428.7 573.7 471.3 571.3 514.2 568.8C557 566.3 600 563.7 642.8 563.7C685.7 563.7 728.3 566.3 771.2 568.3C814 570.3 857 571.7 878.5 572.3L900 573L900 601L878.5 601C857 601 814 601 771.2 601C728.3 601 685.7 601 642.8 601C600 601 557 601 514.2 601C471.3 601 428.7 601 385.8 601C343 601 300 601 257.2 601C214.3 601 171.7 601 128.8 601C86 601 43 601 21.5 601L0 601Z" fill="#FFFFFF"></path></svg>