<svg id="visual" viewBox="0 0 900 600" width="900" height="600" xmlns="http://www.w3.org/2000/svg" xmlns:xlink="http://www.w3.org/1999/xlink" version="1.1"><path d="M0 480L18.8 472.8C37.7 465.7 75.3 451.3 112.8 445.7C150.3 440 187.7 443 225.2 451.7C262.7 460.3 300.3 474.7 337.8 482.5C375.3 490.3 412.7 491.7 450.2 483.5C487.7 475.3 525.3 457.7 562.8 455.3C600.3 453 637.7 466 675.2 468.2C712.7 470.3 750.3 461.7 787.8 456.8C825.3 452 862.7 451 881.3 450.5L900 450L900 601L881.3 601C862.7 601 825.3 601 787.8 601C750.3 601 712.7 601 675.2 601C637.7 601 600.3 601 562.8 601C525.3 601 487.7 601 450.2 601C412.7 601 375.3 601 337.8 601C300.3 601 262.7 601 225.2 601C187.7 601 150.3 601 112.8 601C75.3 601 37.7 601 18.8 601L0 601Z" fill="#e1ffff"></path><path d="M0 481L18.8 480.7C37.7 480.3 75.3 479.7 112.8 482C150.3 484.3 187.7 489.7 225.2 497.3C262.7 505 300.3 515 337.8 513C375.3 511 412.7 497 450.2 496C487.7 495 525.3 507 562.8 511C600.3 515 637.7 511 675.2 506.7C712.7 502.3 750.3 497.7 787.8 499.8C825.3 502 862.7 511 881.3 515.5L900 520L900 601L881.3 601C862.7 601 825.3 601 787.8 601C750.3 601 712.7 601 675.2 601C637.7 601 600.3 601 562.8 601C525.3 601 487.7 601 450.2 601C412.7 601 375.3 601 337.8 601C300.3 601 262.7 601 225.2 601C187.7 601 150.3 601 112.8 601C75.3 601 37.7 601 18.8 601L0 601Z" fill="#abe1e2"></path><path d="M0 523L18.8 523.8C37.7 524.7 75.3 526.3 112.8 528.7C150.3 531 187.7 534 225.2 535.5C262.7 537 300.3 537 337.8 536.2C375.3 535.3 412.7 533.7 450.2 534.7C487.7 535.7 525.3 539.3 562.8 539.2C600.3 539 637.7 535 675.2 536C712.7 537 750.3 543 787.8 545.3C825.3 547.7 862.7 546.3 881.3 545.7L900 545L900 601L881.3 601C862.7 601 825.3 601 787.8 601C750.3 601 712.7 601 675.2 601C637.7 601 600.3 601 562.8 601C525.3 601 487.7 601 450.2 601C412.7 601 375.3 601 337.8 601C300.3 601 262.7 601 225.2 601C187.7 601 150.3 601 112.8 601C75.3 601 37.7 601 18.8 601L0 601Z" fill="#73c4c5"></path></svg>