<svg xmlns="http://www.w3.org/2000/svg" xmlns:xlink="http://www.w3.org/1999/xlink" width="1920" zoomAndPan="magnify" viewBox="0 0 1440 809.999993" height="1080" preserveAspectRatio="xMidYMid meet" version="1.0"><defs><clipPath id="b3639fdb43"><path d="M 48.933594 0 L 1391.433594 0 L 1391.433594 810 L 48.933594 810 Z M 48.933594 0 " clip-rule="nonzero"/></clipPath></defs><g clip-path="url(#b3639fdb43)"><path fill="#ffffff" d="M 365.707031 211.183594 L 618.914062 211.183594 L 618.914062 231.300781 L 388.917969 231.300781 L 388.917969 382.726562 L 605.199219 382.726562 L 605.199219 402.847656 L 388.917969 402.847656 L 388.917969 569.101562 L 621.550781 569.101562 L 621.550781 589.21875 L 365.707031 589.21875 Z M 641.597656 211.183594 L 668.5 211.183594 L 787.71875 377.433594 L 909.574219 211.183594 L 1075.320312 0.00390625 L 803.015625 394.90625 L 943.335938 589.21875 L 915.378906 589.21875 L 787.71875 412.378906 L 659.53125 589.21875 L 632.101562 589.21875 L 773.476562 394.90625 Z M 953.359375 231.300781 L 953.359375 211.183594 L 1241.910156 211.183594 L 1241.910156 231.300781 L 1108.976562 231.300781 L 1108.976562 589.21875 L 1085.765625 589.21875 L 1085.765625 231.300781 Z M 48.933594 211.183594 L 77.945312 211.183594 L 478.023438 809.691406 L 312.691406 589.21875 L 73.199219 239.773438 L 72.144531 589.21875 L 48.933594 589.21875 Z M 1239.570312 563.027344 C 1234.828125 563.027344 1231.273438 559.355469 1231.273438 554.609375 C 1231.273438 549.863281 1234.828125 546.1875 1239.570312 546.1875 C 1244.371094 546.1875 1247.871094 549.863281 1247.871094 554.609375 C 1247.871094 559.355469 1244.371094 563.027344 1239.570312 563.027344 Z M 1262.378906 540.875 L 1274.796875 540.875 C 1274.96875 547.601562 1279.878906 552.121094 1287.105469 552.121094 C 1295.179688 552.121094 1299.75 547.261719 1299.75 538.164062 L 1299.75 480.523438 L 1312.398438 480.523438 L 1312.398438 538.21875 C 1312.398438 554.609375 1302.914062 564.046875 1287.21875 564.046875 C 1272.484375 564.046875 1262.378906 554.890625 1262.378906 540.875 Z M 1328.9375 540.140625 L 1341.46875 540.140625 C 1342.542969 547.882812 1350.109375 552.800781 1361.003906 552.800781 C 1371.164062 552.800781 1378.617188 547.542969 1378.617188 540.3125 C 1378.617188 534.09375 1373.875 530.363281 1363.09375 527.820312 L 1352.589844 525.277344 C 1337.855469 521.832031 1331.140625 514.710938 1331.140625 502.730469 C 1331.140625 488.207031 1342.996094 478.542969 1360.777344 478.542969 C 1377.320312 478.542969 1389.398438 488.207031 1390.132812 501.941406 L 1377.828125 501.941406 C 1376.640625 494.421875 1370.09375 489.734375 1360.609375 489.734375 C 1350.617188 489.734375 1343.953125 494.535156 1343.953125 501.882812 C 1343.953125 507.703125 1348.246094 511.039062 1358.859375 513.523438 L 1367.835938 515.726562 C 1384.542969 519.628906 1391.433594 526.410156 1391.433594 538.671875 C 1391.433594 554.269531 1379.351562 564.046875 1360.042969 564.046875 C 1341.976562 564.046875 1329.839844 554.722656 1328.9375 540.140625 Z M 1328.9375 540.140625 " fill-opacity="1" fill-rule="nonzero"/></g></svg>