<svg id="visual" viewBox="0 0 900 600" width="900" height="600" xmlns="http://www.w3.org/2000/svg" xmlns:xlink="http://www.w3.org/1999/xlink" version="1.1"><path d="M36 0L37 14.3C38 28.7 40 57.3 41 85.8C42 114.3 42 142.7 40.8 171.2C39.7 199.7 37.3 228.3 38.2 257C39 285.7 43 314.3 46.7 343C50.3 371.7 53.7 400.3 53.5 428.8C53.3 457.3 49.7 485.7 46.8 514.2C44 542.7 42 571.3 41 585.7L40 600L0 600L0 585.7C0 571.3 0 542.7 0 514.2C0 485.7 0 457.3 0 428.8C0 400.3 0 371.7 0 343C0 314.3 0 285.7 0 257C0 228.3 0 199.7 0 171.2C0 142.7 0 114.3 0 85.8C0 57.3 0 28.7 0 14.3L0 0Z" fill="#73c4c5"></path></svg>